<svg xmlns="http://www.w3.org/2000/svg" xmlns:xlink="http://www.w3.org/1999/xlink" width="840" height="647.88"><rect width="840" height="647.88" rx="0" ry="0" class="a"></rect><svg height="607.88" viewBox="0 0 80 60.788" width="800" x="20" xmlns="http://www.w3.org/2000/svg" xmlns:xlink="http://www.w3.org/1999/xlink" y="20"><style>.a{fill:rgb(247,247,247)}.b{font-family:'Fira Code',Monaco,Consolas,Menlo,'Bitstream Vera Sans Mono','Powerline Symbols',monospace}.c{fill:transparent}.d{fill:rgb(101,123,131);white-space:pre}.e{fill:rgb(42,161,152);white-space:pre}.f{fill:rgb(38,139,210);white-space:pre}</style><g font-family="&#x27;Fira Code&#x27;,Monaco,Consolas,Menlo,&#x27;Bitstream Vera Sans Mono&#x27;,&#x27;Powerline Symbols&#x27;,monospace" font-size="1.67" class="b"><defs><symbol id="a"><rect height="28" width="80" x="0" y="0" class="c"></rect></symbol></defs><rect height="60.788" width="80" class="a"></rect><svg x="0" y="0" width="80"><svg x="0"><use xlink:href="#a"></use><text font-size="1.67" x="0" y="3.8409999999999997" class="d">──</text><text font-size="1.67" x="3.006" y="3.8409999999999997" class="d">Jumpstarting</text><text font-size="1.67" x="16.032" y="3.8409999999999997" class="d">container</text><text font-size="1.67" x="26.052" y="3.8409999999999997" class="d">──────────────────────────────────────────────────────</text><text font-size="1.67" x="0" y="6.012" class="e">ℹ</text><text font-size="1.67" x="2.004" y="6.012" class="d">Docker</text><text font-size="1.67" x="9.017999999999999" y="6.012" class="d">will</text><text font-size="1.67" x="14.027999999999999" y="6.012" class="d">now</text><text font-size="1.67" x="18.035999999999998" y="6.012" class="d">jumpstart</text><text font-size="1.67" x="28.055999999999997" y="6.012" class="d">an</text><text font-size="1.67" x="31.061999999999998" y="6.012" class="d">initial</text><text font-size="1.67" x="39.077999999999996" y="6.012" class="d">ORS</text><text font-size="1.67" x="43.086" y="6.012" class="d">setup.</text><text font-size="1.67" x="50.1" y="6.012" class="d">This</text><text font-size="1.67" x="55.10999999999999" y="6.012" class="d">setup</text><text font-size="1.67" x="61.12199999999999" y="6.012" class="d">runs</text><text font-size="1.67" x="66.13199999999999" y="6.012" class="d">the</text><text font-size="1.67" x="70.13999999999999" y="6.012" class="d">default</text><text font-size="1.67" x="2.004" y="8.183" class="d">config,</text><text font-size="1.67" x="10.02" y="8.183" class="d">settings,</text><text font-size="1.67" x="20.04" y="8.183" class="d">and</text><text font-size="1.67" x="24.048" y="8.183" class="d">data</text><text font-size="1.67" x="29.058" y="8.183" class="d">from</text><text font-size="1.67" x="34.068" y="8.183" class="d">Heidelberg,</text><text font-size="1.67" x="46.09199999999999" y="8.183" class="d">Germany.</text><text font-size="1.67" x="55.10999999999999" y="8.183" class="d">It</text><text font-size="1.67" x="58.116" y="8.183" class="d">will</text><text font-size="1.67" x="63.12599999999999" y="8.183" class="d">fail</text><text font-size="1.67" x="68.136" y="8.183" class="d">for</text><text font-size="1.67" x="72.14399999999999" y="8.183" class="d">any</text><text font-size="1.67" x="2.004" y="10.354" class="d">coordinates</text><text font-size="1.67" x="14.027999999999999" y="10.354" class="d">outside</text><text font-size="1.67" x="22.043999999999997" y="10.354" class="d">of</text><text font-size="1.67" x="25.05" y="10.354" class="d">Heidelberg.</text><text font-size="1.67" x="37.074" y="10.354" class="d">You</text><text font-size="1.67" x="41.082" y="10.354" class="d">can</text><text font-size="1.67" x="45.089999999999996" y="10.354" class="d">make</text><text font-size="1.67" x="50.1" y="10.354" class="d">changes</text><text font-size="1.67" x="58.116" y="10.354" class="d">to</text><text font-size="1.67" x="61.12199999999999" y="10.354" class="d">this</text><text font-size="1.67" x="66.13199999999999" y="10.354" class="d">setup</text><text font-size="1.67" x="2.004" y="12.525" class="d">afterwards.</text><text font-size="1.67" x="14.027999999999999" y="12.525" class="d">This</text><text font-size="1.67" x="19.037999999999997" y="12.525" class="d">process</text><text font-size="1.67" x="27.054" y="12.525" class="d">can</text><text font-size="1.67" x="31.061999999999998" y="12.525" class="d">take</text><text font-size="1.67" x="36.071999999999996" y="12.525" class="d">a</text><text font-size="1.67" x="38.07599999999999" y="12.525" class="d">few</text><text font-size="1.67" x="42.083999999999996" y="12.525" class="d">minutes.</text><text font-size="1.67" x="51.102" y="12.525" class="d">Jumpstarting</text><text font-size="1.67" x="64.128" y="12.525" class="d">is</text><text font-size="1.67" x="67.134" y="12.525" class="d">recommended</text><text font-size="1.67" x="2.004" y="14.696" class="d">by</text><text font-size="1.67" x="5.01" y="14.696" class="d">the</text><text font-size="1.67" x="9.017999999999999" y="14.696" class="d">ORS</text><text font-size="1.67" x="13.026" y="14.696" class="d">developer</text><text font-size="1.67" x="23.045999999999996" y="14.696" class="d">team,</text><text font-size="1.67" x="29.058" y="14.696" class="d">but</text><text font-size="1.67" x="33.065999999999995" y="14.696" class="d">you</text><text font-size="1.67" x="37.074" y="14.696" class="d">can</text><text font-size="1.67" x="41.082" y="14.696" class="d">also</text><text font-size="1.67" x="46.09199999999999" y="14.696" class="d">start</text><text font-size="1.67" x="52.104" y="14.696" class="d">a</text><text font-size="1.67" x="54.108" y="14.696" class="d">dry</text><text font-size="1.67" x="58.116" y="14.696" class="d">run</text><text font-size="1.67" x="62.123999999999995" y="14.696" class="d">and</text><text font-size="1.67" x="66.13199999999999" y="14.696" class="d">jumpstart</text><text font-size="1.67" x="2.004" y="16.866999999999997" class="d">yourself.</text><text font-size="1.67" x="0" y="21.209000000000003" class="e">•</text><text font-size="1.67" x="2.004" y="21.209000000000003" class="d">Setting</text><text font-size="1.67" x="10.02" y="21.209000000000003" class="d">name</text><text font-size="1.67" x="15.029999999999998" y="21.209000000000003" class="d">to</text><text font-size="1.67" x="18.035999999999998" y="21.209000000000003" class="f">&quot;ors-app-6aaf033&quot;</text><text font-size="1.67" x="0" y="23.380000000000003" class="e">•</text><text font-size="1.67" x="2.004" y="23.380000000000003" class="d">Setting</text><text font-size="1.67" x="10.02" y="23.380000000000003" class="d">ports</text><text font-size="1.67" x="16.032" y="23.380000000000003" class="d">to</text><text font-size="1.67" x="19.037999999999997" y="23.380000000000003" class="f">&quot;45657&quot;</text><text font-size="1.67" x="27.054" y="23.380000000000003" class="d">and</text><text font-size="1.67" x="31.061999999999998" y="23.380000000000003" class="f">&quot;12347&quot;</text><text font-size="1.67" x="0" y="25.550999999999995" class="d">──</text><text font-size="1.67" x="3.006" y="25.550999999999995" class="d">Pulling</text><text font-size="1.67" x="11.021999999999998" y="25.550999999999995" class="d">image</text><text font-size="1.67" x="17.034" y="25.550999999999995" class="d">───────────────────────────────────────────────────────────────</text><text font-size="1.67" x="0" y="27.722" class="e">ℹ</text><text font-size="1.67" x="2.004" y="27.722" class="d">ORS</text><text font-size="1.67" x="6.012" y="27.722" class="d">image</text><text font-size="1.67" x="12.024" y="27.722" class="d">already</text><text font-size="1.67" x="20.04" y="27.722" class="d">exists.</text><text font-size="1.67" x="0" y="32.064" class="d">──</text><text font-size="1.67" x="3.006" y="32.064" class="d">Building</text><text font-size="1.67" x="12.024" y="32.064" class="d">container</text><text font-size="1.67" x="22.043999999999997" y="32.064" class="d">──────────────────────────────────────────────────────────</text><text font-size="1.67" x="0" y="34.235" class="d">Network</text><text font-size="1.67" x="8.016" y="34.235" class="d">ors-app-6aaf033_default</text><text font-size="1.67" x="33.065999999999995" y="34.235" class="d">Creating</text><text font-size="1.67" x="0" y="36.406" class="d">Network</text><text font-size="1.67" x="8.016" y="36.406" class="d">ors-app-6aaf033_default</text><text font-size="1.67" x="33.065999999999995" y="36.406" class="d">Created</text><text font-size="1.67" x="0" y="38.577000000000005" class="d">Container</text><text font-size="1.67" x="10.02" y="38.577000000000005" class="d">ors-app-6aaf033</text><text font-size="1.67" x="27.054" y="38.577000000000005" class="d">Creating</text><text font-size="1.67" x="0" y="40.748000000000005" class="d">Container</text><text font-size="1.67" x="10.02" y="40.748000000000005" class="d">ors-app-6aaf033</text><text font-size="1.67" x="27.054" y="40.748000000000005" class="d">Created</text><text font-size="1.67" x="0" y="42.919" class="d">Container</text><text font-size="1.67" x="10.02" y="42.919" class="d">ors-app-6aaf033</text><text font-size="1.67" x="27.054" y="42.919" class="d">Starting</text><text font-size="1.67" x="0" y="45.09" class="d">Container</text><text font-size="1.67" x="10.02" y="45.09" class="d">ors-app-6aaf033</text><text font-size="1.67" x="27.054" y="45.09" class="d">Started</text><text font-size="1.67" x="0" y="49.431999999999995" class="d">──</text><text font-size="1.67" x="3.006" y="49.431999999999995" class="d">Setting</text><text font-size="1.67" x="11.021999999999998" y="49.431999999999995" class="d">up</text><text font-size="1.67" x="14.027999999999999" y="49.431999999999995" class="d">service</text><text font-size="1.67" x="22.043999999999997" y="49.431999999999995" class="d">──────────────────────────────────────────────────────────</text><text font-size="1.67" x="0" y="51.603" class="e">ℹ</text><text font-size="1.67" x="2.004" y="51.603" class="d">The</text><text font-size="1.67" x="6.012" y="51.603" class="d">container</text><text font-size="1.67" x="16.032" y="51.603" class="d">is</text><text font-size="1.67" x="19.037999999999997" y="51.603" class="d">being</text><text font-size="1.67" x="25.05" y="51.603" class="d">set</text><text font-size="1.67" x="29.058" y="51.603" class="d">up</text><text font-size="1.67" x="32.064" y="51.603" class="d">and</text><text font-size="1.67" x="36.071999999999996" y="51.603" class="d">started</text><text font-size="1.67" x="44.087999999999994" y="51.603" class="d">now.</text><text font-size="1.67" x="49.098" y="51.603" class="d">You</text><text font-size="1.67" x="53.105999999999995" y="51.603" class="d">can</text><text font-size="1.67" x="57.114" y="51.603" class="d">stop</text><text font-size="1.67" x="62.123999999999995" y="51.603" class="d">the</text><text font-size="1.67" x="66.13199999999999" y="51.603" class="d">process</text><text font-size="1.67" x="74.148" y="51.603" class="d">now</text><text font-size="1.67" x="2.004" y="53.774" class="d">or</text><text font-size="1.67" x="5.01" y="53.774" class="d">let</text><text font-size="1.67" x="9.017999999999999" y="53.774" class="d">it</text><text font-size="1.67" x="12.024" y="53.774" class="d">run</text><text font-size="1.67" x="16.032" y="53.774" class="d">and</text><text font-size="1.67" x="20.04" y="53.774" class="d">get</text><text font-size="1.67" x="24.048" y="53.774" class="d">notified</text><text font-size="1.67" x="33.065999999999995" y="53.774" class="d">when</text><text font-size="1.67" x="38.07599999999999" y="53.774" class="d">the</text><text font-size="1.67" x="42.083999999999996" y="53.774" class="d">service</text><text font-size="1.67" x="50.1" y="53.774" class="d">is</text><text font-size="1.67" x="53.105999999999995" y="53.774" class="d">ready.</text></svg></svg></g></svg></svg>