<svg xmlns="http://www.w3.org/2000/svg" xmlns:xlink="http://www.w3.org/1999/xlink" width="840" height="409.07000000000005"><rect width="840" height="409.07000000000005" rx="0" ry="0" class="a"></rect><svg height="369.07000000000005" viewBox="0 0 80 36.907000000000004" width="800" x="20" xmlns="http://www.w3.org/2000/svg" xmlns:xlink="http://www.w3.org/1999/xlink" y="20"><style>.a{fill:rgb(247,247,247)}.b{font-family:'Fira Code',Monaco,Consolas,Menlo,'Bitstream Vera Sans Mono','Powerline Symbols',monospace}.c{fill:transparent}.d{fill:rgb(101,123,131);white-space:pre}.e{fill:rgb(101,123,131);font-weight:bold;white-space:pre}.f{fill:rgb(133,153,0);white-space:pre}.g{fill:rgb(220,50,47);white-space:pre}</style><g font-family="&#x27;Fira Code&#x27;,Monaco,Consolas,Menlo,&#x27;Bitstream Vera Sans Mono&#x27;,&#x27;Powerline Symbols&#x27;,monospace" font-size="1.67" class="b"><defs><symbol id="a"><rect height="17" width="80" x="0" y="0" class="c"></rect></symbol></defs><rect height="36.907000000000004" width="80" class="a"></rect><svg x="0" y="0" width="80"><svg x="0"><use xlink:href="#a"></use><text font-size="1.67" x="0" y="1.67" class="d">──</text><text font-size="1.67" x="3.006" y="1.67" class="e">Endpoints</text><text font-size="1.67" x="0" y="3.8409999999999997" class="d">Routing</text><text font-size="1.67" x="10.02" y="3.8409999999999997" class="d">:</text><text font-size="1.67" x="12.024" y="3.8409999999999997" class="f">enabled</text><text font-size="1.67" x="20.04" y="3.8409999999999997" class="d">-</text><text font-size="1.67" x="22.043999999999997" y="3.8409999999999997" class="d">no</text><text font-size="1.67" x="25.05" y="3.8409999999999997" class="d">options</text><text font-size="1.67" x="33.065999999999995" y="3.8409999999999997" class="d">changed</text><text font-size="1.67" x="0" y="6.012" class="d">Matrix</text><text font-size="1.67" x="10.02" y="6.012" class="d">:</text><text font-size="1.67" x="12.024" y="6.012" class="f">enabled</text><text font-size="1.67" x="20.04" y="6.012" class="d">-</text><text font-size="1.67" x="22.043999999999997" y="6.012" class="d">no</text><text font-size="1.67" x="25.05" y="6.012" class="d">options</text><text font-size="1.67" x="33.065999999999995" y="6.012" class="d">changed</text><text font-size="1.67" x="0" y="8.183" class="d">Isochrone</text><text font-size="1.67" x="10.02" y="8.183" class="d">:</text><text font-size="1.67" x="12.024" y="8.183" class="f">enabled</text><text font-size="1.67" x="20.04" y="8.183" class="d">-</text><text font-size="1.67" x="22.043999999999997" y="8.183" class="d">no</text><text font-size="1.67" x="25.05" y="8.183" class="d">options</text><text font-size="1.67" x="33.065999999999995" y="8.183" class="d">changed</text><text font-size="1.67" x="0" y="10.354" class="d">Snap</text><text font-size="1.67" x="10.02" y="10.354" class="d">:</text><text font-size="1.67" x="12.024" y="10.354" class="f">enabled</text><text font-size="1.67" x="20.04" y="10.354" class="d">-</text><text font-size="1.67" x="22.043999999999997" y="10.354" class="d">no</text><text font-size="1.67" x="25.05" y="10.354" class="d">options</text><text font-size="1.67" x="33.065999999999995" y="10.354" class="d">changed</text><text font-size="1.67" x="0" y="14.696" class="d">──</text><text font-size="1.67" x="3.006" y="14.696" class="e">Profiles</text><text font-size="1.67" x="0" y="16.866999999999997" class="d">car</text><text font-size="1.67" x="17.034" y="16.866999999999997" class="d">:</text><text font-size="1.67" x="19.037999999999997" y="16.866999999999997" class="f">TRUE</text><text font-size="1.67" x="0" y="19.037999999999997" class="d">hgv</text><text font-size="1.67" x="17.034" y="19.037999999999997" class="d">:</text><text font-size="1.67" x="19.037999999999997" y="19.037999999999997" class="g">FALSE</text><text font-size="1.67" x="0" y="21.209000000000003" class="d">bike-regular</text><text font-size="1.67" x="17.034" y="21.209000000000003" class="d">:</text><text font-size="1.67" x="19.037999999999997" y="21.209000000000003" class="g">FALSE</text><text font-size="1.67" x="0" y="23.380000000000003" class="d">bike-mountain</text><text font-size="1.67" x="17.034" y="23.380000000000003" class="d">:</text><text font-size="1.67" x="19.037999999999997" y="23.380000000000003" class="g">FALSE</text><text font-size="1.67" x="0" y="25.550999999999995" class="d">bike-road</text><text font-size="1.67" x="17.034" y="25.550999999999995" class="d">:</text><text font-size="1.67" x="19.037999999999997" y="25.550999999999995" class="g">FALSE</text><text font-size="1.67" x="0" y="27.722" class="d">bike-electric</text><text font-size="1.67" x="17.034" y="27.722" class="d">:</text><text font-size="1.67" x="19.037999999999997" y="27.722" class="g">FALSE</text><text font-size="1.67" x="0" y="29.893" class="d">walking</text><text font-size="1.67" x="17.034" y="29.893" class="d">:</text><text font-size="1.67" x="19.037999999999997" y="29.893" class="g">FALSE</text><text font-size="1.67" x="0" y="32.064" class="d">hiking</text><text font-size="1.67" x="17.034" y="32.064" class="d">:</text><text font-size="1.67" x="19.037999999999997" y="32.064" class="g">FALSE</text><text font-size="1.67" x="0" y="34.235" class="d">wheelchair</text><text font-size="1.67" x="17.034" y="34.235" class="d">:</text><text font-size="1.67" x="19.037999999999997" y="34.235" class="g">FALSE</text><text font-size="1.67" x="0" y="36.406" class="d">public-transport</text><text font-size="1.67" x="17.034" y="36.406" class="d">:</text><text font-size="1.67" x="19.037999999999997" y="36.406" class="g">FALSE</text></svg></svg></g></svg></svg>