<svg xmlns="http://www.w3.org/2000/svg" xmlns:xlink="http://www.w3.org/1999/xlink" width="840" height="235.39000000000001"><rect width="840" height="235.39000000000001" rx="0" ry="0" class="a"></rect><svg height="195.39000000000001" viewBox="0 0 80 19.539" width="800" x="20" xmlns="http://www.w3.org/2000/svg" xmlns:xlink="http://www.w3.org/1999/xlink" y="20"><style>.a{fill:rgb(247,247,247)}.b{font-family:'Fira Code',Monaco,Consolas,Menlo,'Bitstream Vera Sans Mono','Powerline Symbols',monospace}.c{fill:transparent}.d{fill:rgb(101,123,131);white-space:pre}</style><g font-family="&#x27;Fira Code&#x27;,Monaco,Consolas,Menlo,&#x27;Bitstream Vera Sans Mono&#x27;,&#x27;Powerline Symbols&#x27;,monospace" font-size="1.67" class="b"><defs><symbol id="a"><rect height="9" width="80" x="0" y="0" class="c"></rect></symbol></defs><rect height="19.539" width="80" class="a"></rect><svg x="0" y="0" width="80"><svg x="0"><use xlink:href="#a"></use><text font-size="1.67" x="0" y="1.67" class="d">List</text><text font-size="1.67" x="5.01" y="1.67" class="d">of</text><text font-size="1.67" x="8.016" y="1.67" class="d">1</text><text font-size="1.67" x="1.002" y="3.8409999999999997" class="d">$</text><text font-size="1.67" x="3.006" y="3.8409999999999997" class="d">ors:List</text><text font-size="1.67" x="12.024" y="3.8409999999999997" class="d">of</text><text font-size="1.67" x="15.029999999999998" y="3.8409999999999997" class="d">2</text><text font-size="1.67" x="2.004" y="6.012" class="d">..$</text><text font-size="1.67" x="6.012" y="6.012" class="d">engine</text><text font-size="1.67" x="15.029999999999998" y="6.012" class="d">:List</text><text font-size="1.67" x="21.041999999999998" y="6.012" class="d">of</text><text font-size="1.67" x="24.048" y="6.012" class="d">4</text><text font-size="1.67" x="2.004" y="8.183" class="d">..</text><text font-size="1.67" x="5.01" y="8.183" class="d">..$</text><text font-size="1.67" x="9.017999999999999" y="8.183" class="d">source_file</text><text font-size="1.67" x="25.05" y="8.183" class="d">:</text><text font-size="1.67" x="27.054" y="8.183" class="d">chr</text><text font-size="1.67" x="31.061999999999998" y="8.183" class="d">&quot;./ors-core/data/osm_file.pbf&quot;</text><text font-size="1.67" x="2.004" y="10.354" class="d">..</text><text font-size="1.67" x="5.01" y="10.354" class="d">..$</text><text font-size="1.67" x="9.017999999999999" y="10.354" class="d">graphs_root_path:</text><text font-size="1.67" x="27.054" y="10.354" class="d">chr</text><text font-size="1.67" x="31.061999999999998" y="10.354" class="d">&quot;./ors-core/data/graphs&quot;</text><text font-size="1.67" x="2.004" y="12.525" class="d">..</text><text font-size="1.67" x="5.01" y="12.525" class="d">..$</text><text font-size="1.67" x="9.017999999999999" y="12.525" class="d">elevation</text><text font-size="1.67" x="25.05" y="12.525" class="d">:List</text><text font-size="1.67" x="31.061999999999998" y="12.525" class="d">of</text><text font-size="1.67" x="34.068" y="12.525" class="d">1</text><text font-size="1.67" x="2.004" y="14.696" class="d">..</text><text font-size="1.67" x="5.01" y="14.696" class="d">..$</text><text font-size="1.67" x="9.017999999999999" y="14.696" class="d">profiles</text><text font-size="1.67" x="25.05" y="14.696" class="d">:List</text><text font-size="1.67" x="31.061999999999998" y="14.696" class="d">of</text><text font-size="1.67" x="34.068" y="14.696" class="d">2</text><text font-size="1.67" x="2.004" y="16.866999999999997" class="d">..$</text><text font-size="1.67" x="6.012" y="16.866999999999997" class="d">endpoints:List</text><text font-size="1.67" x="21.041999999999998" y="16.866999999999997" class="d">of</text><text font-size="1.67" x="24.048" y="16.866999999999997" class="d">1</text><text font-size="1.67" x="2.004" y="19.037999999999997" class="d">..</text><text font-size="1.67" x="5.01" y="19.037999999999997" class="d">..$</text><text font-size="1.67" x="9.017999999999999" y="19.037999999999997" class="d">isochrone:List</text><text font-size="1.67" x="24.048" y="19.037999999999997" class="d">of</text><text font-size="1.67" x="27.054" y="19.037999999999997" class="d">1</text></svg></svg></g></svg></svg>