<svg xmlns="http://www.w3.org/2000/svg" xmlns:xlink="http://www.w3.org/1999/xlink" width="840" height="257.1"><rect width="840" height="257.1" rx="0" ry="0" class="a"></rect><svg height="217.10000000000002" viewBox="0 0 80 21.71" width="800" x="20" xmlns="http://www.w3.org/2000/svg" xmlns:xlink="http://www.w3.org/1999/xlink" y="20"><style>.a{fill:rgb(247,247,247)}.b{font-family:'Fira Code',Monaco,Consolas,Menlo,'Bitstream Vera Sans Mono','Powerline Symbols',monospace}.c{fill:transparent}.d{fill:rgb(101,123,131);white-space:pre}.e{fill:rgb(101,123,131);font-weight:bold;white-space:pre}.f{fill:rgb(133,153,0);white-space:pre}</style><g font-family="&#x27;Fira Code&#x27;,Monaco,Consolas,Menlo,&#x27;Bitstream Vera Sans Mono&#x27;,&#x27;Powerline Symbols&#x27;,monospace" font-size="1.67" class="b"><defs><symbol id="a"><rect height="10" width="80" x="0" y="0" class="c"></rect></symbol></defs><rect height="21.71" width="80" class="a"></rect><svg x="0" y="0" width="80"><svg x="0"><use xlink:href="#a"></use><text font-size="1.67" x="0" y="1.67" class="d">──</text><text font-size="1.67" x="3.006" y="1.67" class="e">Settings</text><text font-size="1.67" x="0" y="3.8409999999999997" class="d">Build</text><text font-size="1.67" x="7.013999999999999" y="3.8409999999999997" class="d">:</text><text font-size="1.67" x="9.017999999999999" y="3.8409999999999997" class="f">TRUE</text><text font-size="1.67" x="0" y="6.012" class="d">Name</text><text font-size="1.67" x="7.013999999999999" y="6.012" class="d">:</text><text font-size="1.67" x="9.017999999999999" y="6.012" class="f">ors-app-5ba745a</text><text font-size="1.67" x="0" y="8.183" class="d">Ports</text><text font-size="1.67" x="7.013999999999999" y="8.183" class="d">:</text><text font-size="1.67" x="9.017999999999999" y="8.183" class="f">43876</text><text font-size="1.67" x="15.029999999999998" y="8.183" class="d">→</text><text font-size="1.67" x="17.034" y="8.183" class="d">8080,</text><text font-size="1.67" x="23.045999999999996" y="8.183" class="f">12117</text><text font-size="1.67" x="29.058" y="8.183" class="d">→</text><text font-size="1.67" x="31.061999999999998" y="8.183" class="d">9001</text><text font-size="1.67" x="0" y="10.354" class="d">Image</text><text font-size="1.67" x="7.013999999999999" y="10.354" class="d">:</text><text font-size="1.67" x="9.017999999999999" y="10.354" class="f">nightly</text><text font-size="1.67" x="0" y="12.525" class="d">Memory</text><text font-size="1.67" x="7.013999999999999" y="12.525" class="d">:</text><text font-size="1.67" x="0" y="14.696" class="d">•</text><text font-size="1.67" x="2.004" y="14.696" class="d">Total</text><text font-size="1.67" x="8.016" y="14.696" class="d">:</text><text font-size="1.67" x="10.02" y="14.696" class="d">15.93</text><text font-size="1.67" x="16.032" y="14.696" class="d">GB</text><text font-size="1.67" x="0" y="16.866999999999997" class="d">•</text><text font-size="1.67" x="2.004" y="16.866999999999997" class="d">Free</text><text font-size="1.67" x="8.016" y="16.866999999999997" class="d">:</text><text font-size="1.67" x="10.02" y="16.866999999999997" class="d">5.42</text><text font-size="1.67" x="15.029999999999998" y="16.866999999999997" class="d">GB</text><text font-size="1.67" x="0" y="19.037999999999997" class="d">•</text><text font-size="1.67" x="2.004" y="19.037999999999997" class="d">Init</text><text font-size="1.67" x="8.016" y="19.037999999999997" class="d">:</text><text font-size="1.67" x="10.02" y="19.037999999999997" class="f">1</text><text font-size="1.67" x="12.024" y="19.037999999999997" class="d">GB</text><text font-size="1.67" x="0" y="21.209000000000003" class="d">•</text><text font-size="1.67" x="2.004" y="21.209000000000003" class="d">Max</text><text font-size="1.67" x="8.016" y="21.209000000000003" class="d">:</text><text font-size="1.67" x="10.02" y="21.209000000000003" class="f">2</text><text font-size="1.67" x="12.024" y="21.209000000000003" class="d">GB</text></svg></svg></g></svg></svg>