<svg xmlns="http://www.w3.org/2000/svg" xmlns:xlink="http://www.w3.org/1999/xlink" width="840" height="365.65"><rect width="840" height="365.65" rx="0" ry="0" class="a"></rect><svg height="325.65" viewBox="0 0 80 32.565" width="800" x="20" xmlns="http://www.w3.org/2000/svg" xmlns:xlink="http://www.w3.org/1999/xlink" y="20"><style>.a{fill:rgb(247,247,247)}.b{font-family:'Fira Code',Monaco,Consolas,Menlo,'Bitstream Vera Sans Mono','Powerline Symbols',monospace}.c{fill:transparent}.d{fill:rgb(101,123,131);white-space:pre}.e{fill:rgb(42,161,152);white-space:pre}</style><g font-family="&#x27;Fira Code&#x27;,Monaco,Consolas,Menlo,&#x27;Bitstream Vera Sans Mono&#x27;,&#x27;Powerline Symbols&#x27;,monospace" font-size="1.67" class="b"><defs><symbol id="a"><rect height="15" width="80" x="0" y="0" class="c"></rect></symbol></defs><rect height="32.565" width="80" class="a"></rect><svg x="0" y="0" width="80"><svg x="0"><use xlink:href="#a"></use><text font-size="1.67" x="0" y="1.67" class="d">──</text><text font-size="1.67" x="3.006" y="1.67" class="d">Pulling</text><text font-size="1.67" x="11.021999999999998" y="1.67" class="d">image</text><text font-size="1.67" x="17.034" y="1.67" class="d">───────────────────────────────────────────────────────────────</text><text font-size="1.67" x="0" y="3.8409999999999997" class="e">ℹ</text><text font-size="1.67" x="2.004" y="3.8409999999999997" class="d">ORS</text><text font-size="1.67" x="6.012" y="3.8409999999999997" class="d">image</text><text font-size="1.67" x="12.024" y="3.8409999999999997" class="d">already</text><text font-size="1.67" x="20.04" y="3.8409999999999997" class="d">exists.</text><text font-size="1.67" x="0" y="8.183" class="d">──</text><text font-size="1.67" x="3.006" y="8.183" class="d">Building</text><text font-size="1.67" x="12.024" y="8.183" class="d">container</text><text font-size="1.67" x="22.043999999999997" y="8.183" class="d">──────────────────────────────────────────────────────────</text><text font-size="1.67" x="0" y="10.354" class="d">Network</text><text font-size="1.67" x="8.016" y="10.354" class="d">ors-app-b1df26b_default</text><text font-size="1.67" x="33.065999999999995" y="10.354" class="d">Creating</text><text font-size="1.67" x="0" y="12.525" class="d">Network</text><text font-size="1.67" x="8.016" y="12.525" class="d">ors-app-b1df26b_default</text><text font-size="1.67" x="33.065999999999995" y="12.525" class="d">Created</text><text font-size="1.67" x="0" y="14.696" class="d">Container</text><text font-size="1.67" x="10.02" y="14.696" class="d">ors-app-b1df26b</text><text font-size="1.67" x="27.054" y="14.696" class="d">Creating</text><text font-size="1.67" x="0" y="16.866999999999997" class="d">Container</text><text font-size="1.67" x="10.02" y="16.866999999999997" class="d">ors-app-b1df26b</text><text font-size="1.67" x="27.054" y="16.866999999999997" class="d">Created</text><text font-size="1.67" x="0" y="19.037999999999997" class="d">Container</text><text font-size="1.67" x="10.02" y="19.037999999999997" class="d">ors-app-b1df26b</text><text font-size="1.67" x="27.054" y="19.037999999999997" class="d">Starting</text><text font-size="1.67" x="0" y="21.209000000000003" class="d">Container</text><text font-size="1.67" x="10.02" y="21.209000000000003" class="d">ors-app-b1df26b</text><text font-size="1.67" x="27.054" y="21.209000000000003" class="d">Started</text><text font-size="1.67" x="0" y="25.550999999999995" class="d">──</text><text font-size="1.67" x="3.006" y="25.550999999999995" class="d">Setting</text><text font-size="1.67" x="11.021999999999998" y="25.550999999999995" class="d">up</text><text font-size="1.67" x="14.027999999999999" y="25.550999999999995" class="d">service</text><text font-size="1.67" x="22.043999999999997" y="25.550999999999995" class="d">──────────────────────────────────────────────────────────</text><text font-size="1.67" x="0" y="27.722" class="e">ℹ</text><text font-size="1.67" x="2.004" y="27.722" class="d">The</text><text font-size="1.67" x="6.012" y="27.722" class="d">container</text><text font-size="1.67" x="16.032" y="27.722" class="d">is</text><text font-size="1.67" x="19.037999999999997" y="27.722" class="d">being</text><text font-size="1.67" x="25.05" y="27.722" class="d">set</text><text font-size="1.67" x="29.058" y="27.722" class="d">up</text><text font-size="1.67" x="32.064" y="27.722" class="d">and</text><text font-size="1.67" x="36.071999999999996" y="27.722" class="d">started</text><text font-size="1.67" x="44.087999999999994" y="27.722" class="d">now.</text><text font-size="1.67" x="49.098" y="27.722" class="d">You</text><text font-size="1.67" x="53.105999999999995" y="27.722" class="d">can</text><text font-size="1.67" x="57.114" y="27.722" class="d">stop</text><text font-size="1.67" x="62.123999999999995" y="27.722" class="d">the</text><text font-size="1.67" x="66.13199999999999" y="27.722" class="d">process</text><text font-size="1.67" x="74.148" y="27.722" class="d">now</text><text font-size="1.67" x="2.004" y="29.893" class="d">or</text><text font-size="1.67" x="5.01" y="29.893" class="d">let</text><text font-size="1.67" x="9.017999999999999" y="29.893" class="d">it</text><text font-size="1.67" x="12.024" y="29.893" class="d">run</text><text font-size="1.67" x="16.032" y="29.893" class="d">and</text><text font-size="1.67" x="20.04" y="29.893" class="d">get</text><text font-size="1.67" x="24.048" y="29.893" class="d">notified</text><text font-size="1.67" x="33.065999999999995" y="29.893" class="d">when</text><text font-size="1.67" x="38.07599999999999" y="29.893" class="d">the</text><text font-size="1.67" x="42.083999999999996" y="29.893" class="d">service</text><text font-size="1.67" x="50.1" y="29.893" class="d">is</text><text font-size="1.67" x="53.105999999999995" y="29.893" class="d">ready.</text></svg></svg></g></svg></svg>