<svg xmlns="http://www.w3.org/2000/svg" xmlns:xlink="http://www.w3.org/1999/xlink" width="840" height="191.97"><rect width="840" height="191.97" rx="0" ry="0" class="a"></rect><svg height="151.97" viewBox="0 0 80 15.197" width="800" x="20" xmlns="http://www.w3.org/2000/svg" xmlns:xlink="http://www.w3.org/1999/xlink" y="20"><style>.a{fill:rgb(247,247,247)}.b{font-family:'Fira Code',Monaco,Consolas,Menlo,'Bitstream Vera Sans Mono','Powerline Symbols',monospace}.c{fill:transparent}.d{fill:rgb(101,123,131);white-space:pre}</style><g font-family="&#x27;Fira Code&#x27;,Monaco,Consolas,Menlo,&#x27;Bitstream Vera Sans Mono&#x27;,&#x27;Powerline Symbols&#x27;,monospace" font-size="1.67" class="b"><defs><symbol id="a"><rect height="7" width="80" x="0" y="0" class="c"></rect></symbol></defs><rect height="15.197" width="80" class="a"></rect><svg x="0" y="0" width="80"><svg x="0"><use xlink:href="#a"></use><text font-size="1.67" x="0" y="1.67" class="d">Build</text><text font-size="1.67" x="7.013999999999999" y="1.67" class="d">:</text><text font-size="1.67" x="9.017999999999999" y="1.67" class="d">TRUE</text><text font-size="1.67" x="0" y="3.8409999999999997" class="d">Name</text><text font-size="1.67" x="7.013999999999999" y="3.8409999999999997" class="d">:</text><text font-size="1.67" x="9.017999999999999" y="3.8409999999999997" class="d">ors-app-6aaf033</text><text font-size="1.67" x="0" y="6.012" class="d">Ports</text><text font-size="1.67" x="7.013999999999999" y="6.012" class="d">:</text><text font-size="1.67" x="9.017999999999999" y="6.012" class="d">45657</text><text font-size="1.67" x="15.029999999999998" y="6.012" class="d">-&gt;</text><text font-size="1.67" x="18.035999999999998" y="6.012" class="d">8080,</text><text font-size="1.67" x="24.048" y="6.012" class="d">12347</text><text font-size="1.67" x="30.059999999999995" y="6.012" class="d">-&gt;</text><text font-size="1.67" x="33.065999999999995" y="6.012" class="d">9001</text><text font-size="1.67" x="0" y="8.183" class="d">Image</text><text font-size="1.67" x="7.013999999999999" y="8.183" class="d">:</text><text font-size="1.67" x="9.017999999999999" y="8.183" class="d">nightly</text><text font-size="1.67" x="1.002" y="12.525" class="d">Total</text><text font-size="1.67" x="7.013999999999999" y="12.525" class="d">memory</text><text font-size="1.67" x="14.027999999999999" y="12.525" class="d">Free</text><text font-size="1.67" x="19.037999999999997" y="12.525" class="d">memory</text><text font-size="1.67" x="26.052" y="12.525" class="d">Initial</text><text font-size="1.67" x="34.068" y="12.525" class="d">memory</text><text font-size="1.67" x="41.082" y="12.525" class="d">Max</text><text font-size="1.67" x="45.089999999999996" y="12.525" class="d">memory</text><text font-size="1.67" x="1.002" y="14.696" class="d">15.93</text><text font-size="1.67" x="7.013999999999999" y="14.696" class="d">GB</text><text font-size="1.67" x="14.027999999999999" y="14.696" class="d">4.63</text><text font-size="1.67" x="19.037999999999997" y="14.696" class="d">GB</text><text font-size="1.67" x="26.052" y="14.696" class="d">1</text><text font-size="1.67" x="28.055999999999997" y="14.696" class="d">GB</text><text font-size="1.67" x="41.082" y="14.696" class="d">2</text><text font-size="1.67" x="43.086" y="14.696" class="d">GB</text></svg></svg></g></svg></svg>